<svg viewBox="0 0 460 238" xmlns="http://www.w3.org/2000/svg" role="img" aria-label="top languages (by bytes)">
  <title>top languages (by bytes)</title>
  <style>
    text { font-family: 'SFMono-Regular', Consolas, 'Liberation Mono', Menlo, monospace; }
    .bar-top  { fill:#161B22; }
    .win-body { fill:#0D1117; stroke:#30363D; stroke-width:1; }
    .title    { fill:#8B949E; font-size:12px; }
    .cursor   { fill:#58A6FF; animation: blink 1s step-end infinite; }
    @keyframes blink { 0%, 100% { opacity:1; } 50% { opacity:0; } }
    @media (prefers-reduced-motion: reduce) { .cursor { animation:none; } }
  </style>
  <rect class="win-body" x="1" y="1" width="458" height="236" rx="10" />
  <rect class="bar-top"  x="1" y="1" width="458" height="34" rx="10" />
  <rect class="bar-top"  x="1" y="18" width="458" height="17" />
  <text x="18" y="23" class="title">top languages (by bytes)</text>
  <text x="24" y="70" font-size="13" fill="#C9D1D9">Go</text>
  <rect x="150" y="62" width="220" height="10" rx="5" fill="#161B22" />
  <rect x="150" y="62" width="146.6" height="10" rx="5" fill="#00ADD8" />
  <text x="380" y="71" font-size="12" fill="#8B949E">66.6%</text>
  <text x="24" y="96" font-size="13" fill="#C9D1D9">JavaScript</text>
  <rect x="150" y="88" width="220" height="10" rx="5" fill="#161B22" />
  <rect x="150" y="88" width="25.9" height="10" rx="5" fill="#F1E05A" />
  <text x="380" y="97" font-size="12" fill="#8B949E">11.8%</text>
  <text x="24" y="122" font-size="13" fill="#C9D1D9">Dart</text>
  <rect x="150" y="114" width="220" height="10" rx="5" fill="#161B22" />
  <rect x="150" y="114" width="19.0" height="10" rx="5" fill="#00B4AB" />
  <text x="380" y="123" font-size="12" fill="#8B949E"> 8.6%</text>
  <text x="24" y="148" font-size="13" fill="#C9D1D9">HTML</text>
  <rect x="150" y="140" width="220" height="10" rx="5" fill="#161B22" />
  <rect x="150" y="140" width="6.8" height="10" rx="5" fill="#E44D26" />
  <text x="380" y="149" font-size="12" fill="#8B949E"> 3.1%</text>
  <text x="24" y="174" font-size="13" fill="#C9D1D9">TypeScript</text>
  <rect x="150" y="166" width="220" height="10" rx="5" fill="#161B22" />
  <rect x="150" y="166" width="5.9" height="10" rx="5" fill="#3178C6" />
  <text x="380" y="175" font-size="12" fill="#8B949E"> 2.7%</text>
  <text x="24" y="200" font-size="13" fill="#C9D1D9">CSS</text>
  <rect x="150" y="192" width="220" height="10" rx="5" fill="#161B22" />
  <rect x="150" y="192" width="4.7" height="10" rx="5" fill="#563D7C" />
  <text x="380" y="201" font-size="12" fill="#8B949E"> 2.2%</text>
</svg>