<svg xmlns="http://www.w3.org/2000/svg" width="1200" height="360" viewBox="0 0 1200 360" role="img" aria-labelledby="title desc">
  <title id="title">Mersad Moghaddam — Backend Engineer and Go Developer</title>
  <desc id="desc">A calm technical banner with a terminal prompt, service nodes, data flow, and concurrent worker lanes.</desc>
  <defs>
    <linearGradient id="bg" x1="0" y1="0" x2="1" y2="1">
      <stop offset="0" stop-color="#f8fbff"/>
      <stop offset="1" stop-color="#edf4fb"/>
    </linearGradient>
    <linearGradient id="accent" x1="0" y1="0" x2="1" y2="0">
      <stop offset="0" stop-color="#007f9f"/>
      <stop offset="1" stop-color="#6d5bd0"/>
    </linearGradient>
    <pattern id="grid" width="32" height="32" patternUnits="userSpaceOnUse">
      <path d="M32 0H0V32" fill="none" stroke="#a8bad0" stroke-width="1" opacity=".24"/>
    </pattern>
  </defs>

  <rect width="1200" height="360" rx="28" fill="url(#bg)"/>
  <rect x="1" y="1" width="1198" height="358" rx="27" fill="none" stroke="#ccd8e6"/>
  <rect x="760" y="1" width="439" height="358" rx="27" fill="url(#grid)"/>

  <g font-family="ui-monospace, SFMono-Regular, Menlo, Consolas, monospace">
    <g transform="translate(54 44)">
      <rect width="620" height="50" rx="12" fill="#ffffff" stroke="#c8d6e5"/>
      <circle cx="22" cy="25" r="5" fill="#df536d"/>
      <circle cx="40" cy="25" r="5" fill="#d7a500"/>
      <circle cx="58" cy="25" r="5" fill="#238b62"/>
      <text x="86" y="32" fill="#5f7189" font-size="17">$</text>
      <text x="108" y="32" fill="#24354c" font-size="17">go run ./cmd/mersad</text>
      <rect x="300" y="17" width="10" height="20" rx="2" fill="#008eb2"/>
    </g>

    <text x="54" y="161" fill="#10233d" font-size="48" font-weight="700" letter-spacing="-1.2">Mersad Moghaddam</text>
    <rect x="54" y="184" width="92" height="4" rx="2" fill="url(#accent)"/>
    <text x="54" y="227" fill="#007f9f" font-size="24" font-weight="700">Backend Engineer</text>
    <text x="282" y="227" fill="#667b94" font-size="22">·</text>
    <text x="306" y="227" fill="#31445d" font-size="24">Go Developer</text>
    <text x="54" y="271" fill="#546b84" font-size="17">reliable systems  /  clear boundaries  /  observable by design</text>

    <g transform="translate(54 300)" font-size="13" font-weight="700">
      <rect width="128" height="30" rx="15" fill="#e5f6fa" stroke="#8cc9d8"/>
      <circle cx="18" cy="15" r="4" fill="#008eb2"/>
      <text x="31" y="20" fill="#15647a">MASHHAD · IR</text>
      <rect x="142" width="104" height="30" rx="15" fill="#f0edff" stroke="#bbb2e6"/>
      <circle cx="160" cy="15" r="4" fill="#6d5bd0"/>
      <text x="173" y="20" fill="#5645af">GO / API</text>
    </g>
  </g>

  <g transform="translate(780 50)" fill="none" stroke-linecap="round" stroke-linejoin="round">
    <path d="M42 111H128C148 111 148 66 168 66H239" stroke="#9aadc3" stroke-width="2"/>
    <path d="M42 111H128C148 111 148 156 168 156H239" stroke="#9aadc3" stroke-width="2"/>
    <path d="M284 66H327C346 66 346 111 365 111H382" stroke="#9aadc3" stroke-width="2"/>
    <path d="M284 156H327C346 156 346 111 365 111" stroke="#9aadc3" stroke-width="2"/>
    <circle cx="42" cy="111" r="25" fill="#e4f6fa" stroke="#008eb2" stroke-width="2"/>
    <path d="M33 111h18m-9-9 9 9-9 9" stroke="#007f9f" stroke-width="2"/>
    <rect x="168" y="42" width="116" height="48" rx="12" fill="#ffffff" stroke="#8ca1b9"/>
    <rect x="168" y="132" width="116" height="48" rx="12" fill="#ffffff" stroke="#8ca1b9"/>
    <circle cx="188" cy="66" r="5" fill="#238b62" stroke="none"/>
    <circle cx="188" cy="156" r="5" fill="#238b62" stroke="none"/>
    <path d="M204 66h56M204 156h56" stroke="#71869e" stroke-width="4"/>
    <circle cx="382" cy="111" r="25" fill="#efedff" stroke="#6d5bd0" stroke-width="2"/>
    <path d="M373 102h18v18h-18zM377 98v4m10-4v4m-10 18v4m10-4v4" stroke="#5645af" stroke-width="2"/>

    <g transform="translate(81 226)">
      <path d="M0 0H270" stroke="#a5b7cb" stroke-width="2"/>
      <path d="M0 38H270" stroke="#a5b7cb" stroke-width="2"/>
      <path d="M0 76H270" stroke="#a5b7cb" stroke-width="2"/>
      <g fill="#008eb2" stroke="none">
        <rect x="17" y="-5" width="58" height="10" rx="5"/>
        <rect x="93" y="33" width="92" height="10" rx="5"/>
        <rect x="203" y="71" width="48" height="10" rx="5"/>
      </g>
      <g fill="#6d5bd0" stroke="none">
        <circle cx="85" cy="0" r="5"/>
        <circle cx="195" cy="38" r="5"/>
        <circle cx="261" cy="76" r="5"/>
      </g>
    </g>
  </g>
</svg>
